<svg xmlns="http://www.w3.org/2000/svg" width="0" height="0">
    <!-- 20 PX -->
    <symbol id="icon-all_20" viewBox="0 0 20 20" fill="none">
        <path fill="currentColor" d="M5.783 9.675a3.283 3.283 0 1 1 0-6.567 3.283 3.283 0 0 1 0 6.567Zm0-5.308a2.033 2.033 0 1 0 2.034 2.025 2.025 2.025 0 0 0-2.034-2.025ZM14.217 9.592a3.284 3.284 0 1 1 0-6.568 3.284 3.284 0 0 1 0 6.568Zm0-5.309A2.033 2.033 0 1 0 14.2 8.35a2.033 2.033 0 0 0 .017-4.067ZM5.783 18.017a3.283 3.283 0 1 1 0-6.567 3.283 3.283 0 0 1 0 6.567Zm0-5.309a2.033 2.033 0 1 0 2.034 2.025 2.026 2.026 0 0 0-2.034-2.025ZM14.217 17.933a3.283 3.283 0 1 1 0-6.566 3.283 3.283 0 0 1 0 6.566Zm0-5.308a2.033 2.033 0 1 0-.017 4.066 2.033 2.033 0 0 0 .017-4.066Z" />
    </symbol>
    <symbol id="icon-emotes_20" viewBox="0 0 20 20" fill="none">
        <path fill="currentColor" d="M15.441 16.033H4.5a.617.617 0 0 1-.592-.425L1.25 7.5a.608.608 0 0 1 .183-.667.617.617 0 0 1 .692-.083l4.85 2.417 2.5-4.85a.65.65 0 0 1 1.117 0l2.5 4.858 4.858-2.417a.608.608 0 0 1 .683.084.624.624 0 0 1 .117.658l-2.717 8.1a.617.617 0 0 1-.592.433ZM5 14.783h10l2.091-6.241-4.058 2.016a.618.618 0 0 1-.833-.275L10 5.967l-2.192 4.316a.617.617 0 0 1-.833.275L2.9 8.517 5 14.783Z" />
        <path fill="currentColor" d="M10 12.267a.633.633 0 0 1-.58-.864.616.616 0 0 1 .572-.386.625.625 0 0 1 0 1.25H10Z" />
    </symbol>
    <symbol id="icon-skins_20" viewBox="0 0 20 20" fill="none">
        <path fill="currentColor" stroke="#BCB4DE" stroke-width=".2" d="M9.241 15.367a2.525 2.525 0 1 0-2.516 2.516 2.517 2.517 0 0 0 2.516-2.516Zm0 0h-.1.1Zm-3.116-.898a1.075 1.075 0 1 1 1.183 1.795 1.075 1.075 0 0 1-1.183-1.795ZM15.25 15.367a2.525 2.525 0 1 0-1.554 2.325 2.518 2.518 0 0 0 1.554-2.325Zm0 0h-.1.1Zm-3.117-.898a1.075 1.075 0 1 1 1.183 1.796 1.075 1.075 0 0 1-1.183-1.796Z" />
        <path fill="currentColor" stroke="#BCB4DE" stroke-width=".2" d="M8.517 16.092h2.425a.725.725 0 0 0 0-1.45H8.517a.725.725 0 0 0 0 1.45ZM2.543 12.493l.657.307-.004.1h.001a.608.608 0 0 0 .322-.077c1.974-.803 4.09-1.199 6.221-1.165h.168a.725.725 0 0 0 0-1.45h-.174c-2.35-.05-4.684.4-6.848 1.317l-.004.002a.725.725 0 0 0-.339.966Z" />
        <path fill="currentColor" stroke="#BCB4DE" stroke-width=".2" d="M9.908 11.658h.003a15.5 15.5 0 0 1 6.378 1.165c.095.053.203.08.311.077a.742.742 0 0 0 .672-.405l.001-.002a.725.725 0 0 0-.338-.966l-.004-.002a16.383 16.383 0 0 0-7.025-1.317.725.725 0 0 0 .002 1.45ZM5.5 9.992a.725.725 0 0 0 .724-.629c.15-1.148.444-2.36.797-3.285.176-.462.366-.847.557-1.115a1.37 1.37 0 0 1 .277-.301.402.402 0 0 1 .237-.095H10a.725.725 0 0 0 0-1.45H8.092c-.617 0-1.125.333-1.536.829-.41.494-.733 1.16-.984 1.849-.503 1.379-.729 2.88-.788 3.385a.725.725 0 0 0 .629.81v.002H5.5Zm0 0v-.1.1Z" />
        <path fill="currentColor" stroke="#BCB4DE" stroke-width=".2" d="M14.301 9.992h.01l.075-.01h.002a.726.726 0 0 0 .628-.811c-.092-.703-.333-2.204-.835-3.531-.25-.664-.57-1.29-.972-1.754-.404-.463-.9-.77-1.5-.77H9.834a.725.725 0 0 0 0 1.45h1.875c.07 0 .15.03.24.096.088.067.182.167.277.301.191.268.38.653.557 1.115.352.924.644 2.137.793 3.285a.725.725 0 0 0 .725.629Z" />
    </symbol>
    <symbol id="icon-weapons_20" viewBox="0 0 20 20" fill="none">
        <path fill="currentColor" stroke="#BCB4DE" stroke-width=".2" d="M9.998 15.483H10a.725.725 0 0 0 .503-.203l.001-.001 7.092-7.092a.742.742 0 0 0 .212-.52v-.001l-.05-4.734a.725.725 0 0 0-.724-.715h-4.792a.725.725 0 0 0-.513.212L4.737 9.54l-.002.002a.717.717 0 0 0 0 .968l.003.003 4.75 4.759.001.001a.758.758 0 0 0 .509.211ZM10 13.725 6.266 10l6.276-6.357 3.776.016.048 3.71L10 13.724Z" />
        <path fill="currentColor" stroke="#BCB4DE" stroke-width=".2" d="m2.416 8.171.006.009.007.007 9.383 9.408a.716.716 0 0 0 .51.213.71.71 0 0 0 .512-.184l.003-.003a.725.725 0 0 0 0-1.025L3.404 7.163l-.01-.01-.011-.007a.725.725 0 0 0-.967 1.025Z" />
        <path fill="currentColor" stroke="#BCB4DE" stroke-width=".2" d="M2.216 14.166a.742.742 0 0 0 .212.529l2.85 2.875.005.004a.724.724 0 0 0 .557.184.759.759 0 0 0 .458-.182l.006-.006 3.242-3.283a.725.725 0 0 0-.234-1.184.716.716 0 0 0-.792.16L5.832 16.01l-1.883-1.844c.595-.608 1.712-1.709 2.737-2.71a.728.728 0 0 0-1.014-1.043c-1.711 1.665-2.57 2.503-3 2.967-.215.23-.33.376-.39.49a.55.55 0 0 0-.066.297Zm0 0h.1-.1ZM13.582 6.071l.038-.092a.725.725 0 0 0-.8.176L9.486 9.488a.725.725 0 0 0 .512 1.237m3.583-4.654.038-.092a.724.724 0 0 1 .224 1.201l-3.332 3.332a.717.717 0 0 1-.513.213m3.583-4.654a.625.625 0 0 0-.69.154l.69-.154ZM10 10.725v-.1.1Z" />
    </symbol>
    <symbol id="icon-cookie_20"
        xmlns="http://www.w3.org/2000/svg" viewBox="0 0 20 20" fill="none">
        <path fill="currentColor" d="M18.48 8.547c-.468.148-.96.246-1.453.246a4.258 4.258 0 0 1-4.212-4.212c0-.443.074-.886.222-1.305a3.169 3.169 0 0 1-.69-3.104A11.715 11.715 0 0 0 10.5 0C4.983 0 .5 4.483.5 10s4.483 10 10 10 10-4.483 10-10c0-.222 0-.443-.025-.665a3.93 3.93 0 0 1-1.995-.788ZM5.081 7.315c1.724 0 1.724 2.71 0 2.71s-1.97-2.71 0-2.71Zm1.478 8.448c-1.97 0-1.97-2.955 0-2.955s1.97 2.956 0 2.956ZM9.515 1.33c1.724 0 1.724 2.956 0 2.956s-1.97-2.956 0-2.956Zm1.231 7.512c1.478 0 1.478 1.97 0 1.97s-1.231-1.97 0-1.97Zm1.724 8.104c-1.477 0-1.477-1.97 0-1.97 1.478 0 1.232 1.97 0 1.97Zm4.68-3.843c-1.231 0-1.231-1.97 0-1.97 1.232 0 1.232 1.97 0 1.97Z"/>
    </symbol>
    <!-- 24 PX -->
    <symbol id="icon-chevron-down_24" viewBox="0 0 24 24" fill="none">
        <g clip-path="url(#a)">
            <path stroke="currentColor" stroke-linecap="round" stroke-linejoin="round" stroke-width="1.5" d="m6 9 6 6 6-6" />
        </g>
        <defs>
            <clipPath id="a">
                <path fill="currentColor" d="M0 0h24v24H0z" />
            </clipPath>
        </defs>
    </symbol>
    <symbol id="icon-download_24" viewBox="0 0 24 24" fill="none">
        <path stroke="currentColor" stroke-linecap="round" stroke-linejoin="round" stroke-width="1.5" d="M6 21h12M12 3v14m0 0 5-5m-5 5-5-5" />
    </symbol>
    <symbol id="icon-eye-closed_24" viewBox="0 0 24 24" fill="none">
        <path stroke="currentColor" stroke-linecap="round" stroke-linejoin="round" stroke-width="1.5" d="m5.75 5.125 12.5 13.75M14.102 14.312a3.125 3.125 0 0 1-4.204-4.624" />
        <path stroke="currentColor" stroke-linecap="round" stroke-linejoin="round" stroke-width="1.5" d="M7.78 7.359C4.597 8.972 3.25 12 3.25 12s2.5 5.624 8.75 5.624a9.22 9.22 0 0 0 4.219-.983M18.298 15.21c1.703-1.525 2.453-3.21 2.453-3.21S18.25 6.374 12 6.374c-.542 0-1.082.044-1.616.132" />
        <path stroke="currentColor" stroke-linecap="round" stroke-linejoin="round" stroke-width="1.5" d="M12.588 8.93a3.127 3.127 0 0 1 2.523 2.776" />
    </symbol>
    <symbol id="icon-eye-open_24" viewBox="0 0 24 24">
        <path stroke="currentColor" stroke-linecap="round" stroke-linejoin="round" stroke-width="1.5" d="M12 6.374C5.75 6.374 3.25 12 3.25 12s2.5 5.624 8.75 5.624S20.75 12 20.75 12 18.25 6.374 12 6.374Z" />
        <path stroke="currentColor" stroke-linecap="round" stroke-linejoin="round" stroke-width="1.5" d="M12 15.125a3.125 3.125 0 1 0 0-6.25 3.125 3.125 0 0 0 0 6.25Z" />
    </symbol>
    <symbol id="icon-my-wallet_24" viewBox="0 0 24 24" fill="none">
        <path fill="currentColor" d="M18.111 7.379h-.889V6.49a2.667 2.667 0 0 0-2.666-2.667h-8.89A2.667 2.667 0 0 0 3 6.49v10.667a2.667 2.667 0 0 0 2.667 2.666H18.11a2.667 2.667 0 0 0 2.667-2.666v-7.111a2.667 2.667 0 0 0-2.667-2.667ZM5.667 5.601h8.889a.889.889 0 0 1 .888.89v.888H5.667a.889.889 0 1 1 0-1.778ZM19 14.491h-.889a.889.889 0 0 1 0-1.779H19v1.778Zm0-3.556h-.889a2.667 2.667 0 1 0 0 5.333H19v.889a.889.889 0 0 1-.889.889H5.667a.889.889 0 0 1-.89-.89v-8.15c.286.1.587.151.89.15H18.11a.889.889 0 0 1 .889.89v.889Z" />
    </symbol>
    <symbol id="icon-sign-out_24" viewBox="0 0 24 24" fill="none">
        <path stroke="currentColor" stroke-linecap="round" stroke-linejoin="round" stroke-width="1.5" d="m12 15 3-3m0 0-3-3m3 3H4m0 5c0 .932 0 1.398.152 1.765a2 2 0 0 0 1.083 1.083C5.602 20 6.068 20 7 20h9.8c1.12 0 1.68 0 2.108-.218a2 2 0 0 0 .874-.874C20 18.48 20 17.92 20 16.8V7.2c0-1.12 0-1.68-.218-2.108a2 2 0 0 0-.874-.874C18.48 4 17.92 4 16.8 4H7c-.932 0-1.398 0-1.765.152a2 2 0 0 0-1.083 1.083C4 5.602 4 6.068 4 7" />
    </symbol>
    <symbol id="icon-user_24" viewBox="0 0 24 24" fill="none">
        <path stroke="currentColor" stroke-linecap="round" stroke-linejoin="round" stroke-width="2" d="M19 21a7 7 0 1 0-14 0m7-10a4 4 0 1 1 0-8 4 4 0 0 1 0 8Z" />
    </symbol>
    <symbol id="icon-arrow-right_24" viewBox="0 0 24 24" fill="none">
        <path stroke="currentColor" stroke-linecap="round" stroke-linejoin="round" stroke-width="2" d="M5 12h14m0 0-7-7m7 7-7 7" />
    </symbol>
    <symbol id="icon-close_24" viewBox="0 0 24 24" fill="none">
        <path fill="currentColor" fill-rule="evenodd" d="M18.47 6.803a.9.9 0 1 0-1.273-1.273L12 10.727 6.803 5.53A.9.9 0 0 0 5.53 6.803L10.727 12 5.53 17.197a.9.9 0 0 0 1.273 1.273L12 13.273l5.197 5.197a.9.9 0 1 0 1.273-1.273L13.273 12l5.197-5.197Z" clip-rule="evenodd" />
    </symbol>
    <symbol id="icon-gear_24" viewBox="0 0 24 24" fill="none">
        <path stroke="currentColor" stroke-linecap="round" stroke-linejoin="round" stroke-width="1.5" d="M12 17.25a5.25 5.25 0 1 0 0-10.5 5.25 5.25 0 0 0 0 10.5Z" />
        <path stroke="currentColor" stroke-linecap="round" stroke-linejoin="round" stroke-width="1.5" d="m5.23 16.774-.112 1.741a.76.76 0 0 0 .232.604 9.43 9.43 0 0 0 3.81 2.2.761.761 0 0 0 .64-.101l1.45-.968h1.5l1.451.968a.761.761 0 0 0 .64.1 9.43 9.43 0 0 0 3.809-2.2.76.76 0 0 0 .232-.603l-.112-1.74.75-1.3 1.563-.772a.76.76 0 0 0 .407-.503 9.43 9.43 0 0 0 0-4.4.76.76 0 0 0-.407-.502l-1.563-.773-.75-1.3.112-1.74a.76.76 0 0 0-.232-.604 9.43 9.43 0 0 0-3.81-2.2.76.76 0 0 0-.639.102l-1.45.967h-1.5l-1.452-.967a.76.76 0 0 0-.639-.101 9.43 9.43 0 0 0-3.81 2.2.76.76 0 0 0-.232.603l.113 1.74-.75 1.3-1.564.772a.76.76 0 0 0-.407.504 9.43 9.43 0 0 0 0 4.398.76.76 0 0 0 .407.504l1.563.773.75 1.298Z" />
    </symbol>
    <symbol id="icon-menu_24" viewBox="0 0 24 24" fill="none">
        <path stroke="currentColor" stroke-linecap="round" stroke-linejoin="round" stroke-width="1.5" d="M21 12H3M21 6H3M21 18H3" />
    </symbol>
    <symbol id="icon-twitch_24" viewBox="0 0 24 24" fill="none">
        <path stroke="currentColor" stroke-linecap="round" stroke-linejoin="round" stroke-width="1.5" d="M11 11V7m5 4V7m5-5H3v16h5v4l4-4h5l4-4V2Z" />
    </symbol>
    <symbol id="icon-facebook_24" viewBox="0 0 24 24" fill="none">
        <path stroke="currentColor" stroke-linecap="round" stroke-linejoin="round" stroke-width="1.5" d="M18 2h-3a5 5 0 0 0-5 5v3H7v4h3v8h4v-8h3l1-4h-4V7a1 1 0 0 1 1-1h3V2Z" />
    </symbol>
    <symbol id="icon-instagram_24" viewBox="0 0 24 24" fill="none">
        <path stroke="currentColor" stroke-linecap="round" stroke-linejoin="round" stroke-width="1.5" d="M17 2H7a5 5 0 0 0-5 5v10a5 5 0 0 0 5 5h10a5 5 0 0 0 5-5V7a5 5 0 0 0-5-5Z" />
        <path stroke="currentColor" stroke-linecap="round" stroke-linejoin="round" stroke-width="1.5" d="M16.004 11.37a4 4 0 1 1-7.914 1.173 4 4 0 0 1 7.914-1.173ZM17.5 6.5h.01" />
    </symbol>
    <symbol id="icon-twitter_24" viewBox="0 0 24 24" fill="none">
        <path stroke="currentColor" stroke-linecap="round" stroke-linejoin="round" stroke-width="1.5" d="M22 4s-.7 2.1-2 3.4c1.6 10-9.4 17.3-18 11.6 2.2.1 4.4-.6 6-2C3 15.5.5 9.6 3 5c2.2 2.6 5.6 4.1 9 4-.9-4.2 4-6.6 7-3.8 1.1 0 3-1.2 3-1.2Z" />
    </symbol>
    <symbol id="icon-youtube_24" viewBox="0 0 24 24" fill="none">
        <path stroke="currentColor" stroke-linecap="round" stroke-linejoin="round" stroke-width="1.5" d="M12 19c-2.3 0-6.4-.2-8.1-.6-.7-.2-1.2-.7-1.4-1.4-.3-1.1-.5-3.4-.5-5s.2-3.9.5-5c.2-.7.7-1.2 1.4-1.4C5.6 5.2 9.7 5 12 5s6.4.2 8.1.6c.7.2 1.2.7 1.4 1.4.3 1.1.5 3.4.5 5s-.2 3.9-.5 5c-.2.7-.7 1.2-1.4 1.4-1.7.4-5.8.6-8.1.6Z" />
        <path stroke="currentColor" stroke-linecap="round" stroke-linejoin="round" stroke-width="1.5" d="m10 15 5-3-5-3v6Z" />
    </symbol>
    <symbol id="icon-discord_24" viewBox="0 0 24 19" fill="none">
        <path fill="currentColor" d="m22.905 15.02-.746-.072.746.071Zm-.029.05-.445-.603.445.603Zm-5.502 2.794.22.717.003-.001-.223-.716Zm-.077-.027-.61.436.61-.436ZM16.174 16l-.67.336.003.007.667-.342Zm.038-.098-.266-.701h-.002l.268.701Zm1.717-.822.38.647-.38-.647Zm.006-.117.45-.6-.002-.001-.448.6Zm-.342-.27.478-.578-.003-.002-.475.58Zm-.072-.009.316.68.012-.005-.328-.675Zm-11.056 0 .313-.681-.006-.003-.307.684Zm-.072.01-.477-.578h-.002l.48.578Zm-.34.269.45.6.001-.002-.451-.598Zm.007.117-.38.647.005.003.375-.65Zm1.716.823.27-.7h-.003l-.267.7Zm.038.098-.669-.34-.001.003.67.336ZM6.69 17.837l.59.463.009-.01.008-.012-.607-.44Zm-.077.026-.224.715.002.001.222-.716ZM1.12 15.07l-.46.593.007.005.007.006.446-.604Zm-.03-.051.748-.062v-.008l-.747.07ZM4.34 2.424l.625.415.01-.013.007-.014-.641-.388Zm.03-.026.3.688.007-.003.008-.004-.315-.68Zm4.478-1.397L8.734.26 8.72.262l.128.74Zm.072.034.655-.367-.007-.01-.648.377Zm.567 1.152-.693.287.225.544.582-.09-.114-.74Zm5.03 0-.112.742.575.087.227-.536-.69-.293Zm.557-1.152.655.366.003-.007-.658-.359Zm.072-.034-.139.737.01.002.129-.739Zm4.478 1.397-.315.681.01.005.012.005.293-.69Zm.028.027-.671.333.022.045.028.042.621-.42Zm-9.323 7.85-.75-.011v.01h.75Zm7.31 0-.75-.011v.01h.75Zm1.392-7.43c2.394 3.542 3.569 7.516 3.128 12.103l1.493.143c.476-4.96-.803-9.277-3.378-13.086l-1.243.84Zm3.128 12.103a.678.678 0 0 1 .272-.481l.89 1.207a.822.822 0 0 0 .33-.583l-1.492-.143Zm.272-.48a17.392 17.392 0 0 1-5.28 2.68l.446 1.432a18.892 18.892 0 0 0 5.725-2.906l-.891-1.207Zm-5.276 2.678a.68.68 0 0 1 .418.007l-.483 1.42a.82.82 0 0 0 .504.008l-.439-1.435Zm.418.007a.68.68 0 0 1 .334.248l-1.22.873c.1.139.24.244.403.299l.483-1.42Zm.334.248a14.046 14.046 0 0 1-1.066-1.744l-1.334.685c.348.678.745 1.322 1.18 1.931l1.22-.872Zm-1.062-1.737c.174.348.02.79-.365.937l-.537-1.4a.821.821 0 0 0-.44 1.134l1.342-.671Zm-.368.938a11.959 11.959 0 0 0 1.832-.876l-.76-1.293c-.511.3-1.043.554-1.603.767l.531 1.402Zm1.832-.877a.821.821 0 0 0 .075-1.364l-.9 1.2a.679.679 0 0 1 .064-1.128l.762 1.292Zm.075-1.364a8.029 8.029 0 0 1-.313-.247l-.957 1.156c.12.098.244.197.372.292l.898-1.201Zm-.316-.25a.817.817 0 0 0-.874-.103l.655 1.35a.683.683 0 0 1-.731-.085l.95-1.161Zm-.863-.108c-3.357 1.56-7.024 1.561-10.427-.001l-.626 1.363c3.798 1.744 7.925 1.745 11.685-.002l-.632-1.36Zm-10.433-.004a.818.818 0 0 0-.856.116l.955 1.156a.682.682 0 0 1-.714.096L6.772 14Zm-.858.117c-.099.082-.205.165-.313.247l.903 1.197c.123-.092.248-.19.369-.29l-.959-1.154Zm-.311.245a.821.821 0 0 0 .078 1.365l.758-1.294c.419.246.453.838.064 1.13l-.9-1.2Zm.082 1.368c.578.333 1.183.63 1.824.874l.534-1.402a11.217 11.217 0 0 1-1.609-.771l-.75 1.299Zm1.821.873a.68.68 0 0 1-.36-.942l1.337.679a.82.82 0 0 0-.437-1.137l-.54 1.4Zm-.362-.939c-.304.606-.66 1.184-1.06 1.734l1.213.882c.445-.612.844-1.26 1.187-1.943l-1.34-.673ZM6.1 17.376c.156-.2.44-.32.735-.229L6.39 18.58a.821.821 0 0 0 .89-.28L6.1 17.377Zm.737-.228a17.453 17.453 0 0 1-5.272-2.68l-.891 1.206a18.95 18.95 0 0 0 5.715 2.905l.448-1.431Zm-5.257-2.67a.675.675 0 0 1 .258.48l-1.495.122c.02.245.148.452.316.583l.92-1.185Zm.258.471c-.369-3.97.377-7.977 3.127-12.11l-1.248-.83C.762 6.446-.054 10.8.343 15.087l1.494-.139ZM4.982 2.812a.686.686 0 0 1-.313.274L4.071 1.71a.814.814 0 0 0-.372.325l1.283.777Zm-.297.267A17.27 17.27 0 0 1 8.976 1.74L8.72.262a18.77 18.77 0 0 0-4.664 1.455l.629 1.362Zm4.278-1.337a.68.68 0 0 1-.69-.329L9.568.658A.82.82 0 0 0 8.734.26l.23 1.482Zm-.697-.34a11 11 0 0 1 .528 1.072L10.18 1.9A12.49 12.49 0 0 0 9.574.668l-1.308.735ZM9.601 2.93a15.906 15.906 0 0 1 4.803 0l.224-1.483a17.406 17.406 0 0 0-5.255 0L9.6 2.93Zm5.606-.45c.142-.335.344-.76.521-1.078L14.42.67c-.21.374-.435.851-.594 1.225l1.382.585Zm.525-1.085a.682.682 0 0 1-.305.29L14.782.329a.818.818 0 0 0-.367.348l1.317.717Zm-.305.29a.682.682 0 0 1-.42.054l.278-1.474a.818.818 0 0 0-.503.065l.645 1.355Zm-.41.056c1.507.262 2.948.719 4.292 1.34l.629-1.363A18.813 18.813 0 0 0 15.274.262l-.256 1.478Zm4.314 1.349a.695.695 0 0 1-.35-.33l1.343-.668a.805.805 0 0 0-.407-.383l-.587 1.38Zm-8.252 7.196C11.1 8.727 9.956 7.294 8.35 7.294v1.5c.616 0 1.24.587 1.228 1.47l1.5.021ZM8.35 7.294c-1.6 0-2.726 1.428-2.726 2.98h1.5c0-.905.625-1.48 1.226-1.48v-1.5Zm-2.726 2.98c0 1.558 1.147 2.98 2.726 2.98v-1.5c-.588 0-1.226-.579-1.226-1.48h-1.5Zm2.726 2.98c1.601 0 2.728-1.427 2.728-2.98h-1.5c0 .906-.625 1.48-1.228 1.48v1.5Zm10.038-2.969c.022-1.558-1.123-2.991-2.727-2.991v1.5c.615 0 1.24.587 1.227 1.47l1.5.021Zm-2.727-2.991c-1.6 0-2.728 1.427-2.728 2.98h1.5c0-.905.626-1.48 1.228-1.48v-1.5Zm-2.728 2.98c0 1.558 1.149 2.98 2.728 2.98v-1.5c-.589 0-1.228-.579-1.228-1.48h-1.5Zm2.728 2.98c1.611 0 2.727-1.429 2.727-2.98h-1.5c0 .908-.619 1.48-1.227 1.48v1.5Z"/>
    </symbol>
    <!-- 36 PX -->
    <symbol id="icon-circle-triangle_36" viewBox="0 0 36 36" fill="none">
        <g stroke="currentColor" stroke-linejoin="round" stroke-width="2" clip-path="url(#icon-circle-triangle-0)">
            <path d="M18.5 15a4.5 4.5 0 1 0 0-9 4.5 4.5 0 0 0 0 9ZM26 28.5a4.5 4.5 0 1 0 0-9 4.5 4.5 0 0 0 0 9ZM11 28.5a4.5 4.5 0 1 0 0-9 4.5 4.5 0 0 0 0 9Z"/>
        </g>
        <defs>
            <clipPath id="icon-circle-triangle-0">
                <path fill="#fff" d="M.5 0h36v36H.5z"/>
            </clipPath>
        </defs>
    </symbol>
    <symbol id="icon-team_36" viewBox="0 0 36 36" fill="none">
        <g stroke="currentColor" stroke-linecap="round" stroke-linejoin="round" stroke-width="2" clip-path="url(#icon-team-0)">
            <path d="M11 10.5a3 3 0 1 0 0-6 3 3 0 0 0 0 6ZM8 33v-7.5L6.5 24v-6A1.5 1.5 0 0 1 8 16.5h6a1.5 1.5 0 0 1 1.5 1.5v6L14 25.5V33M26 10.5a3 3 0 1 0 0-6 3 3 0 0 0 0 6ZM23 33v-6h-3l3-9a1.5 1.5 0 0 1 1.5-1.5h3A1.5 1.5 0 0 1 29 18l3 9h-3v6"/>
        </g>
        <defs>
            <clipPath id="icon-team-0">
                <path fill="#fff" d="M.5 0h36v36H.5z"/>
            </clipPath>
        </defs>
    </symbol>
    <symbol id="icon-play_36" viewBox="0 0 36 36" fill="none">
        <path stroke="currentColor" stroke-linecap="round" stroke-linejoin="round" stroke-width="2" d="M8 26.964v-16c0-1.32 0-1.98.278-2.37a1.5 1.5 0 0 1 1.03-.618c.475-.061 1.056.248 2.217.868l.004.002 15 8c1.289.688 1.934 1.031 2.145 1.49a1.5 1.5 0 0 1 0 1.256c-.211.458-.856.802-2.145 1.49l-15 8-.004.001c-1.162.62-1.742.93-2.217.868a1.5 1.5 0 0 1-1.03-.618C8 28.943 8 28.283 8 26.963Z"/>
    </symbol>
    <!-- 48 PX -->
    <symbol id="icon-camera_48" viewBox="0 0 48 48" fill="none">
        <path fill="currentColor" d="M39 10.5h-5.198l-2.555-3.832A1.5 1.5 0 0 0 29.999 6h-12a1.5 1.5 0 0 0-1.248.668L14.196 10.5H9A4.505 4.505 0 0 0 4.5 15v21A4.505 4.505 0 0 0 9 40.5h30a4.505 4.505 0 0 0 4.5-4.5V15a4.505 4.505 0 0 0-4.5-4.5Zm-8.25 14.25A6.75 6.75 0 1 1 24 18a6.758 6.758 0 0 1 6.75 6.75Z" />
    </symbol>
    <symbol id="icon-error_48" viewBox="0 0 48 48" fill="none">
        <path fill="currentColor" d="M12.914 10.086a2 2 0 1 0-2.828 2.828l2.828-2.828Zm22.172 27.828a2 2 0 1 0 2.828-2.828l-2.828 2.828ZM24 40c-8.837 0-16-7.163-16-16H4c0 11.046 8.954 20 20 20v-4ZM8 24c0-8.837 7.163-16 16-16V4C12.954 4 4 12.954 4 24h4ZM24 8c8.837 0 16 7.163 16 16h4c0-11.046-8.954-20-20-20v4Zm16 16c0 8.837-7.163 16-16 16v4c11.046 0 20-8.954 20-20h-4ZM10.086 12.914l25 25 2.828-2.828-25-25-2.828 2.828Z" />
    </symbol>
    <symbol id="icon-mark_48" viewBox="0 0 48 48" fill="none">
        <path fill="currentColor" stroke="#433958" stroke-width="2" d="M43.113 8.756c1.422 1.12 1.594 3.074.42 4.399L20.8 38.776a3.493 3.493 0 0 1-2.478 1.148l-.046.001-.037.005h-.027l-.04.001c-.924 0-1.797-.343-2.425-.94l-.004-.005L3.978 27.9c-1.304-1.229-1.304-3.187 0-4.416 1.337-1.261 3.52-1.261 4.858 0l8.36 7.873.749.707.684-.77 19.647-22.14c1.198-1.354 3.369-1.553 4.837-.397Z" />
    </symbol>
    <symbol id="icon-smile_48" viewBox="0 0 48 48" fill="none">
        <path fill="currentColor" d="M24 4.5A19.5 19.5 0 1 0 43.5 24 19.523 19.523 0 0 0 24 4.5ZM30.75 18a2.25 2.25 0 1 1 0 4.5 2.25 2.25 0 0 1 0-4.5Zm-13.5 0a2.25 2.25 0 1 1 0 4.5 2.25 2.25 0 0 1 0-4.5Zm15.844 11.252a10.539 10.539 0 0 1-5.004 4.422 10.515 10.515 0 0 1-13.184-4.422 1.5 1.5 0 1 1 2.596-1.503 7.55 7.55 0 0 0 3.58 3.162 7.583 7.583 0 0 0 5.839 0 7.5 7.5 0 0 0 2.382-1.608 7.65 7.65 0 0 0 1.195-1.555 1.498 1.498 0 0 1 2.784.95 1.5 1.5 0 0 1-.188.553Z" />
    </symbol>
</svg>