<svg xmlns="http://www.w3.org/2000/svg" width="260" height="260" fill="none"><rect width="260" height="260" fill="#221039" rx="45"/><path fill="#fff" d="m52.436 121.5-10.234 7.11v-7.11H39v16h3.202v-4.994l4.423-3.068 7.121 8.062h4.266l-8.745-9.909 8.767-6.091h-5.598ZM61.341 137.5h3.202v-16h-3.202v16ZM71.052 124.691h12.53a4.744 4.744 0 0 1-1.725 2.307 4.704 4.704 0 0 1-2.8.895h-8.005v-3.202ZM67.85 137.5h3.202v-6.404h8.006c1.321 0 2.452.47 3.392 1.41.933.941 1.4 2.072 1.4 3.393v1.601h3.202v-1.601a7.837 7.837 0 0 0-.873-3.628 7.899 7.899 0 0 0-2.329-2.777 7.921 7.921 0 0 0 2.329-2.765 7.86 7.86 0 0 0 .873-3.639v-1.59H67.85v16ZM93.572 129.494v-4.803h9.607c.881 0 1.635.314 2.262.941.619.627.929 1.38.929 2.261v1.601H93.572ZM90.37 121.5v16h3.202v-4.803h12.798v4.803h3.202v-9.607c0-1.761-.623-3.269-1.869-4.523-1.254-1.247-2.762-1.87-4.524-1.87H90.37ZM128.252 121.5l-4.658 12.798h-2.642l-4.658-12.798h-3.404l5.823 16h7.121l5.822-16h-3.404ZM134.963 121.5v16h19.202v-3.202h-16v-3.202h16v-3.203h-16v-3.202h16V121.5h-19.202ZM160.685 124.691h12.529a4.748 4.748 0 0 1-1.724 2.307 4.703 4.703 0 0 1-2.799.895h-8.006v-3.202Zm-3.202 12.809h3.202v-6.404h8.006c1.321 0 2.452.47 3.392 1.41.933.941 1.4 2.072 1.4 3.393v1.601h3.202v-1.601a7.84 7.84 0 0 0-.873-3.628 7.9 7.9 0 0 0-2.329-2.777 7.922 7.922 0 0 0 2.329-2.765 7.863 7.863 0 0 0 .873-3.639v-1.59h-19.202v16ZM180.003 131.096h16c0 .88-.31 1.634-.929 2.261a3.084 3.084 0 0 1-2.262.941h-12.809v3.202h12.809c1.762 0 3.269-.627 4.523-1.881 1.247-1.247 1.87-2.754 1.87-4.523v-3.203h-16c0-.881.314-1.634.941-2.261a3.084 3.084 0 0 1 2.262-.941h12.797V121.5h-12.797c-1.77 0-3.277.623-4.524 1.87-1.254 1.254-1.881 2.762-1.881 4.523v3.203ZM202.523 121.5v16h19.202v-3.202h-16v-3.202h16v-3.203h-16v-3.202h16V121.5h-19.202Z"/></svg>