<svg xmlns="http://www.w3.org/2000/svg" preserveAspectRatio="none" viewBox="0 0 297 438" fill="none">
    <g filter="url(#card-back-0)">
        <path fill="#D1D1D1" fill-opacity=".1" d="M17.045.904A6 6 0 0 1 20.213 0h49.252a6 6 0 0 1 3.65 1.238l11.77 9.024a6 6 0 0 0 3.65 1.238H207.852a5.999 5.999 0 0 0 3.808-1.364l10.68-8.772A5.998 5.998 0 0 1 226.148 0h50.639a6 6 0 0 1 3.168.904l14.213 8.835A6 6 0 0 1 297 14.835v408.752a6 6 0 0 1-2.934 5.157l-14.149 8.413a5.994 5.994 0 0 1-3.066.843h-50.776a6.004 6.004 0 0 1-3.707-1.282l-10.736-8.436a5.998 5.998 0 0 0-3.707-1.282H88.464c-1.276 0-2.519.407-3.548 1.162l-11.832 8.676A5.998 5.998 0 0 1 69.536 438H20.149a5.996 5.996 0 0 1-3.066-.843l-14.15-8.413A6 6 0 0 1 0 423.587V14.835a6 6 0 0 1 2.832-5.096L17.045.904Z" />
        <path stroke="url(#card-back-1)" stroke-width="1.5" d="M226.148.75h50.639c.98 0 1.94.274 2.772.791l14.213 8.835a5.25 5.25 0 0 1 2.478 4.459v408.752a5.25 5.25 0 0 1-2.567 4.513l-14.149 8.413a5.257 5.257 0 0 1-2.683.737h-50.776a5.248 5.248 0 0 1-3.243-1.122l-10.737-8.436a6.752 6.752 0 0 0-4.17-1.442H88.464a6.75 6.75 0 0 0-3.992 1.307l-11.832 8.677a5.252 5.252 0 0 1-3.104 1.016H20.149a5.256 5.256 0 0 1-2.683-.737L3.316 428.1a5.251 5.251 0 0 1-2.566-4.513V14.835c0-1.815.937-3.5 2.478-4.459l14.213-8.835A5.25 5.25 0 0 1 20.213.75h49.252a5.25 5.25 0 0 1 3.194 1.084l11.77 9.023a6.75 6.75 0 0 0 4.106 1.393H207.852a6.749 6.749 0 0 0 4.284-1.534l10.68-8.773A5.25 5.25 0 0 1 226.148.75Z" />
    </g>
    <defs>
        <linearGradient id="card-back-1" x1="148.5" x2="148.5" y1="-140.593" y2="438" gradientUnits="userSpaceOnUse">
            <stop stop-color="#7C23D6" />
            <stop offset="1" stop-color="#383439" stop-opacity=".39" />
        </linearGradient>
        <filter id="card-back-0" width="200%" height="200%" preserveAspectRatio="none" x="-20" y="-20" color-interpolation-filters="sRGB" filterUnits="userSpaceOnUse">
            <feFlood flood-opacity="0" result="BackgroundImageFix" />
            <feGaussianBlur in="BackgroundImageFix" stdDeviation="10" />
            <feComposite in2="SourceAlpha" operator="in" result="effect1_backgroundBlur_4398_11923" />
            <feBlend in="SourceGraphic" in2="effect1_backgroundBlur_4398_11923" result="shape" />
        </filter>
    </defs>
</svg>