<svg xmlns="http://www.w3.org/2000/svg" viewBox="0 0 319 517" fill="none" preserveAspectRatio="none">
    <path stroke="url(#card-back-corners-0)" stroke-width="1.5" d="M1.5 138.5V48.25a6 6 0 0 1 2.722-5.026L13 37.5l11.554-7.11a6 6 0 0 1 3.144-.89H101.5" />
    <path stroke="url(#card-back-corners-1)" stroke-width="1.5" d="M318 138.5V48.25a6 6 0 0 0-2.722-5.026L306.5 37.5l-11.554-7.11a5.998 5.998 0 0 0-3.144-.89H218" />
    <path stroke="url(#card-back-corners-2)" stroke-width="1.5" d="M1.5 376.5v90.25a5.999 5.999 0 0 0 2.722 5.025L13 477.5l11.554 7.11a6 6 0 0 0 3.144.89H101.5" />
    <path stroke="url(#card-back-corners-3)" stroke-width="1.5" d="M318 376.5v90.25a6 6 0 0 1-2.722 5.025L306.5 477.5l-11.554 7.11a5.997 5.997 0 0 1-3.144.89H218" />
    <path stroke="url(#card-back-corners-4)" stroke-width="1.5" d="M131.71 10.09 83.709 25.014c-1.553.483-1.911 2.518-.616 3.502l17.871 13.577a2 2 0 0 0 1.21.407h115.113a2 2 0 0 0 1.265-.45l16.556-13.522c1.237-1.01.85-2.99-.676-3.46l-48.644-14.98a2.002 2.002 0 0 0-.589-.088h-52.895c-.202 0-.402.03-.594.09Z" />
    <path fill="#D1D1D1" fill-opacity=".1" d="m136.185 15.063-39.69 10.22c-1.7.438-2.051 2.696-.566 3.63l13.953 8.78a2 2 0 0 0 1.065.307h98.352a2 2 0 0 0 1.12-.343l12.893-8.722c1.43-.966 1.046-3.168-.626-3.594l-40.3-10.279a2.007 2.007 0 0 0-.495-.062h-45.207c-.168 0-.336.021-.499.063Z" />
    <path stroke="url(#card-back-corners-5)" stroke-linecap="round" stroke-width="1.5" d="M138 11.5 158.903.972a2 2 0 0 1 1.858.03L180 11.5" />
    <path stroke="url(#card-back-corners-6)" stroke-linecap="round" stroke-width="1.5" d="m138 21.5 20.903-10.528a2.001 2.001 0 0 1 1.858.03L180 21.5" />
    <path stroke="url(#card-back-corners-7)" stroke-linecap="round" stroke-width="1.5" d="m138 31.5 20.903-10.528a2.001 2.001 0 0 1 1.858.03L180 31.5" />
    <path stroke="url(#card-back-corners-8)" stroke-width="1.5" d="m131.71 504.41-48.001-14.924c-1.553-.482-1.911-2.518-.616-3.502l17.871-13.577a2.002 2.002 0 0 1 1.21-.407h115.113c.461 0 .908.159 1.265.451l16.556 13.521c1.237 1.01.85 2.99-.676 3.46l-48.644 14.979a1.993 1.993 0 0 1-.589.089h-52.895a1.99 1.99 0 0 1-.594-.09Z" />
    <path fill="#D1D1D1" fill-opacity=".1" d="m136.185 499.437-39.69-10.221c-1.7-.437-2.051-2.695-.566-3.629l13.953-8.78a1.997 1.997 0 0 1 1.065-.307h98.352c.399 0 .789.12 1.12.343l12.893 8.722c1.43.966 1.046 3.168-.626 3.594l-40.3 10.279a2.016 2.016 0 0 1-.495.062h-45.207c-.168 0-.336-.021-.499-.063Z" />
    <path stroke="url(#card-back-corners-9)" stroke-linecap="round" stroke-width="1.5" d="m138 505 20.903 10.528a2.001 2.001 0 0 0 1.858-.03L180 505" />
    <path stroke="url(#card-back-corners-10)" stroke-linecap="round" stroke-width="1.5" d="m138 495 20.903 10.528a2.001 2.001 0 0 0 1.858-.03L180 495" />
    <path stroke="url(#card-back-corners-11)" stroke-linecap="round" stroke-width="1.5" d="m138 485 20.903 10.528a2.001 2.001 0 0 0 1.858-.03L180 485" />
    <defs>
        <radialGradient id="card-back-corners-5" cx="0" cy="0" r="1" gradientTransform="matrix(-25.19823 8.24871 -9256.886 -28278.01766 159.834 1.418)" gradientUnits="userSpaceOnUse">
            <stop stop-color="#00E5FF" />
            <stop offset="1" stop-color="#00E5FF" stop-opacity="0" />
        </radialGradient>
        <radialGradient id="card-back-corners-6" cx="0" cy="0" r="1" gradientTransform="matrix(-25.19823 8.24871 -9256.886 -28278.01766 159.834 11.418)" gradientUnits="userSpaceOnUse">
            <stop stop-color="#00E5FF" />
            <stop offset="1" stop-color="#00E5FF" stop-opacity="0" />
        </radialGradient>
        <radialGradient id="card-back-corners-7" cx="0" cy="0" r="1" gradientTransform="matrix(-25.19823 8.24871 -9256.886 -28278.01766 159.834 21.418)" gradientUnits="userSpaceOnUse">
            <stop stop-color="#00E5FF" />
            <stop offset="1" stop-color="#00E5FF" stop-opacity="0" />
        </radialGradient>
        <radialGradient id="card-back-corners-9" cx="0" cy="0" r="1" gradientTransform="matrix(-25.19823 -8.24871 9256.886 -28278.01766 159.834 515.082)" gradientUnits="userSpaceOnUse">
            <stop stop-color="#00E5FF" />
            <stop offset="1" stop-color="#00E5FF" stop-opacity="0" />
        </radialGradient>
        <radialGradient id="card-back-corners-10" cx="0" cy="0" r="1" gradientTransform="matrix(-25.19823 -8.24871 9256.886 -28278.01766 159.834 505.082)" gradientUnits="userSpaceOnUse">
            <stop stop-color="#00E5FF" />
            <stop offset="1" stop-color="#00E5FF" stop-opacity="0" />
        </radialGradient>
        <radialGradient id="card-back-corners-11" cx="0" cy="0" r="1" gradientTransform="matrix(-25.19823 -8.24871 9256.886 -28278.01766 159.834 495.082)" gradientUnits="userSpaceOnUse">
            <stop stop-color="#00E5FF" />
            <stop offset="1" stop-color="#00E5FF" stop-opacity="0" />
        </radialGradient>
        <linearGradient id="card-back-corners-0" x1="102.007" x2="68.345" y1="29.002" y2="155.635" gradientUnits="userSpaceOnUse">
            <stop stop-color="#00E5FF" stop-opacity="0" />
            <stop offset=".471" stop-color="#00E5FF" />
            <stop offset="1" stop-color="#00E5FF" stop-opacity="0" />
        </linearGradient>
        <linearGradient id="card-back-corners-1" x1="217.493" x2="251.155" y1="29.002" y2="155.635" gradientUnits="userSpaceOnUse">
            <stop stop-color="#00E5FF" stop-opacity="0" />
            <stop offset=".471" stop-color="#00E5FF" />
            <stop offset="1" stop-color="#00E5FF" stop-opacity="0" />
        </linearGradient>
        <linearGradient id="card-back-corners-2" x1="102.007" x2="68.345" y1="485.998" y2="359.365" gradientUnits="userSpaceOnUse">
            <stop stop-color="#00E5FF" stop-opacity="0" />
            <stop offset=".471" stop-color="#00E5FF" />
            <stop offset="1" stop-color="#00E5FF" stop-opacity="0" />
        </linearGradient>
        <linearGradient id="card-back-corners-3" x1="217.493" x2="251.155" y1="485.998" y2="359.365" gradientUnits="userSpaceOnUse">
            <stop stop-color="#00E5FF" stop-opacity="0" />
            <stop offset=".471" stop-color="#00E5FF" />
            <stop offset="1" stop-color="#00E5FF" stop-opacity="0" />
        </linearGradient>
        <linearGradient id="card-back-corners-4" x1="159" x2="159" y1="5.5" y2="42.5" gradientUnits="userSpaceOnUse">
            <stop stop-color="#00E2FC" stop-opacity="0" />
            <stop offset="1" stop-color="#00E2FC" />
        </linearGradient>
        <linearGradient id="card-back-corners-8" x1="159" x2="159" y1="509" y2="472" gradientUnits="userSpaceOnUse">
            <stop stop-color="#00E2FC" stop-opacity="0" />
            <stop offset="1" stop-color="#00E2FC" />
        </linearGradient>
    </defs>
</svg>