<svg xmlns="http://www.w3.org/2000/svg" preserveAspectRatio="none" viewBox="0 0 297 438" fill="none">
    <g filter="url(#card-back-hover-0)">
        <g filter="url(#card-back-hover-1)">
            <path stroke="url(#card-back-hover-2)" stroke-width="1.5" d="M17.441 1.541A5.25 5.25 0 0 1 20.213.75h49.252a5.25 5.25 0 0 1 3.194 1.084l11.77 9.023a6.75 6.75 0 0 0 4.106 1.393H207.852a6.749 6.749 0 0 0 4.284-1.534l10.68-8.773A5.25 5.25 0 0 1 226.148.75h50.639c.98 0 1.94.274 2.772.791l14.213 8.835a5.25 5.25 0 0 1 2.478 4.459v408.752a5.25 5.25 0 0 1-2.567 4.513l-14.149 8.413a5.257 5.257 0 0 1-2.683.737h-50.776a5.248 5.248 0 0 1-3.243-1.122l-10.737-8.436a6.752 6.752 0 0 0-4.17-1.442H88.464a6.75 6.75 0 0 0-3.992 1.307l-11.832 8.677a5.252 5.252 0 0 1-3.104 1.016H20.149a5.256 5.256 0 0 1-2.683-.737L3.316 428.1a5.251 5.251 0 0 1-2.566-4.513V14.835c0-1.815.937-3.5 2.478-4.459l14.213-8.835Z" />
        </g>
    </g>
    <defs>
        <filter id="card-back-hover-0" width="200%" height="200%" preserveAspectRatio="none" x="-20" y="-20" color-interpolation-filters="sRGB" filterUnits="userSpaceOnUse">
            <feFlood flood-opacity="0" result="BackgroundImageFix" />
            <feGaussianBlur in="BackgroundImageFix" stdDeviation="10" />
            <feComposite in2="SourceAlpha" operator="in" result="effect1_backgroundBlur_4398_11931" />
            <feBlend in="SourceGraphic" in2="effect1_backgroundBlur_4398_11931" result="shape" />
        </filter>
        <filter id="card-back-hover-1" width="200%" height="200%" preserveAspectRatio="none" x="-20" y="-20" color-interpolation-filters="sRGB" filterUnits="userSpaceOnUse">
            <feFlood flood-opacity="0" result="BackgroundImageFix" />
            <feGaussianBlur in="BackgroundImageFix" stdDeviation="10" />
            <feComposite in2="SourceAlpha" operator="in" result="effect1_backgroundBlur_4398_11931" />
            <feBlend in="SourceGraphic" in2="effect1_backgroundBlur_4398_11931" result="shape" />
        </filter>
        <linearGradient id="card-back-hover-2" x1="148.5" x2="148.5" y1="-.197" y2="438" gradientUnits="userSpaceOnUse">
            <stop stop-color="#9917FF" />
            <stop offset=".33" stop-color="#00E5FF" />
            <stop offset=".562" stop-color="#00E5FF" />
            <stop offset="1" stop-color="#9917FF" />
        </linearGradient>
    </defs>
</svg>